# xmcd
#
# Track frame offsets:
#	150
#	8456
#	21388
#	31875
#	44289
#	55905
#	65992
#	78249
#	89805
#	101419
#	111980
#	126146
#	139769
#	153000
#	162693
#	177336
#	188628
#	198075
#	209780
#	223802
#	236634
#	248284
#	260924
#	273738
#
# Disc length: 3789 seconds
#
# Revision: 0
# Processed by: cddbd v1.5.2PL0 Copyright (c) Steve Scherf et al.
# Submitted via: audiograbber 1.83.01
#
DISCID=610ecb18
DTITLE=Various Artist - Twenty-Four Gunfighter Ballads
DYEAR=2006
DGENRE=Country
TTITLE0=Marty Robbins - It's A Long, Long Ride
TTITLE1=Tex Ritter - Blood On The Saddle
TTITLE2=Roy Rogers - The Streets Of Laredo
TTITLE3=Jack Guthrie - Oklahoma Hills
TTITLE4=Frankie Lane - High Noon
TTITLE5=Tex Ritter - Billie The Kid
TTITLE6=Al Dexter - Pistol Packin' Mama
TTITLE7=Gene Autry - Back In The Saddle Again
TTITLE8=Tennessee Ernie Ford - Shotgun Boogie
TTITLE9=Roy Rogers and Dale Evans - Cool Water
TTITLE10=Sons Of The Pioneers - Riders In The Sky
TTITLE11=T. Texas Tyler - Deck Of Cards
TTITLE12=Tex Ritter - Fort Worth Jail
TTITLE13=Jimmy Wakeley - Birmingham Jail
TTITLE14=Jimmie Rogers - In The Jailhouse Now
TTITLE15=Cowboy Copas - Hangman's Boogie
TTITLE16=Johnny Bond - Red River Valley
TTITLE17=Foy Willing - The Old Chisholm Trail
TTITLE18=Tennessee Ernie Ford - Cry Of The Wild Goose
TTITLE19=Jimmy Wakeley - Moon Over Montana
TTITLE20=Roy Rogers  - Home On The Range
TTITLE21=Foy Willing - Bury Me Not On The Lone Prairie
TTITLE22=Jimmie Rogers - Pistol Packin Papa
TTITLE23=Al Martino - The Man From Laramie
EXTD=
EXTT0=
EXTT1=
EXTT2=
EXTT3=
EXTT4=
EXTT5=
EXTT6=
EXTT7=
EXTT8=
EXTT9=
EXTT10=
EXTT11=
EXTT12=
EXTT13=
EXTT14=
EXTT15=
EXTT16=
EXTT17=
EXTT18=
EXTT19=
EXTT20=
EXTT21=
EXTT22=
EXTT23=
PLAYORDER=
